<?xml version="1.0" encoding="UTF-8" standalone="no"?>
<!DOCTYPE svg PUBLIC "-//W3C//DTD SVG 1.1//EN"
 "http://www.w3.org/Graphics/SVG/1.1/DTD/svg11.dtd">
<!-- Generated by graphviz version 2.43.0 (0)
 -->
<!-- Title: sorted_interval_map Pages: 1 -->
<svg width="2056pt" height="364pt"
 viewBox="0.00 0.00 2056.45 363.50" xmlns="http://www.w3.org/2000/svg" xmlns:xlink="http://www.w3.org/1999/xlink">
<g id="graph0" class="graph" transform="scale(1 1) rotate(0) translate(4 359.5)">
<title>sorted_interval_map</title>
<polygon fill="white" stroke="transparent" points="-4,4 -4,-359.5 2052.45,-359.5 2052.45,4 -4,4"/>
<g id="clust1" class="cluster">
<title>clusterLegend</title>
<polygon fill="none" stroke="black" points="8,-73.02 8,-347.5 636,-347.5 636,-73.02 8,-73.02"/>
<text text-anchor="middle" x="322" y="-332.3" font-family="Times,serif" font-size="14.00">Legend</text>
</g>
<!-- legendNode0 -->
<g id="node1" class="node">
<title>legendNode0</title>
<polygon fill="none" stroke="black" points="339.03,-280.55 342.36,-280.65 345.65,-280.8 348.89,-280.99 352.08,-281.24 355.19,-281.53 358.22,-281.87 361.14,-282.25 363.96,-282.68 366.66,-283.15 369.23,-283.66 371.66,-284.22 373.95,-284.81 376.08,-285.44 378.05,-286.11 379.86,-286.81 381.5,-287.54 382.96,-288.3 384.25,-289.09 385.36,-289.91 386.29,-290.75 387.05,-291.61 387.63,-292.49 388.03,-293.39 388.26,-294.3 388.32,-295.22 388.22,-296.15 387.96,-297.09 387.54,-298.03 386.97,-298.97 386.26,-299.91 385.42,-300.85 384.44,-301.78 383.35,-302.71 382.13,-303.62 380.81,-304.51 379.39,-305.39 377.88,-306.25 376.28,-307.09 374.6,-307.91 372.85,-308.7 371.04,-309.46 369.16,-310.2 367.24,-310.9 365.27,-311.56 363.25,-312.19 361.2,-312.79 359.12,-313.34 357.01,-313.85 354.88,-314.33 352.73,-314.75 350.56,-315.14 348.38,-315.47 346.18,-315.77 343.98,-316.01 341.77,-316.21 339.55,-316.35 337.33,-316.45 335.11,-316.5 332.89,-316.5 330.67,-316.45 328.45,-316.35 326.23,-316.21 324.02,-316.01 321.82,-315.77 319.62,-315.47 317.44,-315.14 315.27,-314.75 313.12,-314.33 310.99,-313.85 308.88,-313.34 306.8,-312.79 304.75,-312.19 302.73,-311.56 300.76,-310.9 298.84,-310.2 296.96,-309.46 295.15,-308.7 293.4,-307.91 291.72,-307.09 290.12,-306.25 288.61,-305.39 287.19,-304.51 285.87,-303.62 284.65,-302.71 283.56,-301.78 282.58,-300.85 281.74,-299.91 281.03,-298.97 280.46,-298.03 280.04,-297.09 279.78,-296.15 279.68,-295.22 279.74,-294.3 279.97,-293.39 280.37,-292.49 280.95,-291.61 281.71,-290.75 282.64,-289.91 283.75,-289.09 285.04,-288.3 286.5,-287.54 288.14,-286.81 289.95,-286.11 291.92,-285.44 294.05,-284.81 296.34,-284.22 298.77,-283.66 301.34,-283.15 304.04,-282.68 306.86,-282.25 309.78,-281.87 312.81,-281.53 315.92,-281.24 319.11,-280.99 322.35,-280.8 325.64,-280.65 328.97,-280.55 332.32,-280.5 335.68,-280.5 339.03,-280.55"/>
<text text-anchor="middle" x="334" y="-295.4" font-family="Times,serif" font-size="12.00">Executable</text>
</g>
<!-- legendNode1 -->
<g id="node2" class="node">
<title>legendNode1</title>
<polygon fill="none" stroke="black" points="150.09,-198.31 150.09,-213.22 110.79,-223.76 55.21,-223.76 15.91,-213.22 15.91,-198.31 55.21,-187.76 110.79,-187.76 150.09,-198.31"/>
<text text-anchor="middle" x="83" y="-202.66" font-family="Times,serif" font-size="12.00">Static Library</text>
</g>
<!-- legendNode0&#45;&gt;legendNode1 -->
<g id="edge1" class="edge">
<title>legendNode0&#45;&gt;legendNode1</title>
<path fill="none" stroke="black" d="M296.27,-284.23C260.98,-271.78 206.85,-252.56 160,-235.48 150.45,-232 140.25,-228.23 130.5,-224.6"/>
<polygon fill="black" stroke="black" points="131.54,-221.25 120.95,-221.04 129.1,-227.81 131.54,-221.25"/>
</g>
<!-- legendNode2 -->
<g id="node3" class="node">
<title>legendNode2</title>
<polygon fill="none" stroke="black" points="319.1,-198.31 319.1,-213.22 276.28,-223.76 215.72,-223.76 172.9,-213.22 172.9,-198.31 215.72,-187.76 276.28,-187.76 319.1,-198.31"/>
<polygon fill="none" stroke="black" points="323.09,-195.17 323.09,-216.35 276.76,-227.76 215.24,-227.76 168.91,-216.35 168.91,-195.17 215.24,-183.76 276.76,-183.76 323.09,-195.17"/>
<text text-anchor="middle" x="246" y="-202.66" font-family="Times,serif" font-size="12.00">Shared Library</text>
</g>
<!-- legendNode0&#45;&gt;legendNode2 -->
<g id="edge2" class="edge">
<title>legendNode0&#45;&gt;legendNode2</title>
<path fill="none" stroke="black" d="M317.86,-280.86C305.52,-268.14 288.22,-250.29 273.68,-235.31"/>
<polygon fill="black" stroke="black" points="275.85,-232.51 266.38,-227.77 270.82,-237.39 275.85,-232.51"/>
</g>
<!-- legendNode3 -->
<g id="node4" class="node">
<title>legendNode3</title>
<polygon fill="none" stroke="black" points="496.92,-198.31 496.92,-213.22 453.62,-223.76 392.38,-223.76 349.08,-213.22 349.08,-198.31 392.38,-187.76 453.62,-187.76 496.92,-198.31"/>
<polygon fill="none" stroke="black" points="500.92,-195.16 500.92,-216.36 454.1,-227.76 391.9,-227.76 345.08,-216.36 345.08,-195.16 391.9,-183.76 454.1,-183.76 500.92,-195.16"/>
<polygon fill="none" stroke="black" points="504.92,-192.02 504.92,-219.5 454.58,-231.76 391.42,-231.76 341.08,-219.5 341.08,-192.02 391.42,-179.76 454.58,-179.76 504.92,-192.02"/>
<text text-anchor="middle" x="423" y="-202.66" font-family="Times,serif" font-size="12.00">Module Library</text>
</g>
<!-- legendNode0&#45;&gt;legendNode3 -->
<!-- legendNode7 -->
<g id="node8" class="node">
<title>legendNode7</title>
<polygon fill="none" stroke="black" points="627.5,-223.76 522.5,-223.76 522.5,-187.76 627.5,-187.76 627.5,-223.76"/>
<text text-anchor="middle" x="575" y="-202.66" font-family="Times,serif" font-size="12.00">Custom Target</text>
</g>
<!-- legendNode0&#45;&gt;legendNode7 -->
<!-- legendNode4 -->
<g id="node5" class="node">
<title>legendNode4</title>
<polygon fill="none" stroke="black" points="200.14,-104.58 108,-117.02 15.86,-104.58 51.05,-84.46 164.95,-84.46 200.14,-104.58"/>
<text text-anchor="middle" x="108" y="-95.92" font-family="Times,serif" font-size="12.00">Interface Library</text>
</g>
<!-- legendNode1&#45;&gt;legendNode4 -->
<g id="edge4" class="edge">
<title>legendNode1&#45;&gt;legendNode4</title>
<path fill="none" stroke="black" stroke-dasharray="5,2" d="M87.13,-187.47C91.08,-170.9 97.11,-145.66 101.67,-126.54"/>
<polygon fill="black" stroke="black" points="105.11,-127.19 104.03,-116.65 98.3,-125.57 105.11,-127.19"/>
<text text-anchor="middle" x="129.5" y="-146.84" font-family="Times,serif" font-size="14.00">Interface</text>
</g>
<!-- legendNode5 -->
<g id="node6" class="node">
<title>legendNode5</title>
<polygon fill="none" stroke="black" points="367.77,-99.02 330.39,-117.02 255.61,-117.02 218.23,-99.02 255.61,-81.02 330.39,-81.02 367.77,-99.02"/>
<text text-anchor="middle" x="293" y="-95.92" font-family="Times,serif" font-size="12.00">Object Library</text>
</g>
<!-- legendNode2&#45;&gt;legendNode5 -->
<g id="edge5" class="edge">
<title>legendNode2&#45;&gt;legendNode5</title>
<path fill="none" stroke="black" stroke-dasharray="1,5" d="M255.51,-183.57C262.93,-167.02 273.29,-143.96 281.23,-126.25"/>
<polygon fill="black" stroke="black" points="284.46,-127.6 285.36,-117.04 278.08,-124.73 284.46,-127.6"/>
<text text-anchor="middle" x="299" y="-146.84" font-family="Times,serif" font-size="14.00">Private</text>
</g>
<!-- legendNode6 -->
<g id="node7" class="node">
<title>legendNode6</title>
<polygon fill="none" stroke="black" points="554.95,-95.02 538.12,-110.25 470,-117.02 401.88,-110.25 385.05,-95.02 432.2,-82.81 507.8,-82.81 554.95,-95.02"/>
<text text-anchor="middle" x="470" y="-95.92" font-family="Times,serif" font-size="12.00">Unknown Library</text>
</g>
<!-- legendNode3&#45;&gt;legendNode6 -->
<g id="edge6" class="edge">
<title>legendNode3&#45;&gt;legendNode6</title>
<path fill="none" stroke="black" d="M434.26,-179.67C441.54,-163.44 451.01,-142.34 458.37,-125.94"/>
<polygon fill="black" stroke="black" points="461.74,-126.98 462.64,-116.42 455.35,-124.11 461.74,-126.98"/>
</g>
<!-- node0 -->
<g id="node9" class="node">
<title>node0</title>
<polygon fill="none" stroke="black" points="1155.22,-88.23 1155.22,-109.81 1078.94,-125.07 971.06,-125.07 894.78,-109.81 894.78,-88.23 971.06,-72.98 1078.94,-72.98 1155.22,-88.23"/>
<text text-anchor="middle" x="1025" y="-102.42" font-family="Times,serif" font-size="12.00">benchmark</text>
<text text-anchor="middle" x="1025" y="-89.42" font-family="Times,serif" font-size="12.00">(benchmark::benchmark)</text>
</g>
<!-- node1 -->
<g id="node10" class="node">
<title>node1</title>
<polygon fill="none" stroke="black" points="1856.68,-23.56 1763,-36 1669.32,-23.56 1705.1,-3.44 1820.9,-3.44 1856.68,-23.56"/>
<text text-anchor="middle" x="1763" y="-14.9" font-family="Times,serif" font-size="12.00">Threads::Threads</text>
</g>
<!-- node0&#45;&gt;node1 -->
<g id="edge8" class="edge">
<title>node0&#45;&gt;node1</title>
<path fill="none" stroke="black" stroke-dasharray="1,5" d="M1141.94,-85.5C1292.76,-69.35 1551.2,-41.68 1682.03,-27.67"/>
<polygon fill="black" stroke="black" points="1682.42,-31.15 1691.99,-26.6 1681.68,-24.19 1682.42,-31.15"/>
</g>
<!-- node2 -->
<g id="node11" class="node">
<title>node2</title>
<polygon fill="none" stroke="black" points="1052,-13.99 1046.65,-29.22 1025,-36 1003.35,-29.22 998,-13.99 1012.98,-1.78 1037.02,-1.78 1052,-13.99"/>
<text text-anchor="middle" x="1025" y="-14.9" font-family="Times,serif" font-size="12.00">rt</text>
</g>
<!-- node0&#45;&gt;node2 -->
<g id="edge9" class="edge">
<title>node0&#45;&gt;node2</title>
<path fill="none" stroke="black" stroke-dasharray="1,5" d="M1025,-72.58C1025,-64.21 1025,-54.86 1025,-46.35"/>
<polygon fill="black" stroke="black" points="1028.5,-46.15 1025,-36.15 1021.5,-46.15 1028.5,-46.15"/>
</g>
<!-- node3 -->
<g id="node12" class="node">
<title>node3</title>
<polygon fill="none" stroke="black" points="1182.83,-194.97 1182.83,-216.55 1090.38,-231.81 959.62,-231.81 867.17,-216.55 867.17,-194.97 959.62,-179.72 1090.38,-179.72 1182.83,-194.97"/>
<text text-anchor="middle" x="1025" y="-209.16" font-family="Times,serif" font-size="12.00">benchmark_main</text>
<text text-anchor="middle" x="1025" y="-196.16" font-family="Times,serif" font-size="12.00">(benchmark::benchmark_main)</text>
</g>
<!-- node3&#45;&gt;node0 -->
<g id="edge10" class="edge">
<title>node3&#45;&gt;node0</title>
<path fill="none" stroke="black" d="M1025,-179.67C1025,-166.43 1025,-149.95 1025,-135.43"/>
<polygon fill="black" stroke="black" points="1028.5,-135.27 1025,-125.27 1021.5,-135.27 1028.5,-135.27"/>
</g>
<!-- node4 -->
<g id="node13" class="node">
<title>node4</title>
<polygon fill="none" stroke="black" points="1944.79,-194.97 1944.79,-216.55 1896.88,-231.81 1829.12,-231.81 1781.21,-216.55 1781.21,-194.97 1829.12,-179.72 1896.88,-179.72 1944.79,-194.97"/>
<text text-anchor="middle" x="1863" y="-209.16" font-family="Times,serif" font-size="12.00">gmock</text>
<text text-anchor="middle" x="1863" y="-196.16" font-family="Times,serif" font-size="12.00">(GTest::gmock)</text>
</g>
<!-- node4&#45;&gt;node1 -->
<g id="edge11" class="edge">
<title>node4&#45;&gt;node1</title>
<path fill="none" stroke="black" d="M1849.51,-179.71C1830.41,-144.22 1795.67,-79.7 1776.54,-44.16"/>
<polygon fill="black" stroke="black" points="1779.41,-42.09 1771.59,-34.95 1773.24,-45.41 1779.41,-42.09"/>
</g>
<!-- node5 -->
<g id="node14" class="node">
<title>node5</title>
<polygon fill="none" stroke="black" points="1735.45,-88.23 1735.45,-109.81 1692.42,-125.07 1631.58,-125.07 1588.55,-109.81 1588.55,-88.23 1631.58,-72.98 1692.42,-72.98 1735.45,-88.23"/>
<text text-anchor="middle" x="1662" y="-102.42" font-family="Times,serif" font-size="12.00">gtest</text>
<text text-anchor="middle" x="1662" y="-89.42" font-family="Times,serif" font-size="12.00">(GTest::gtest)</text>
</g>
<!-- node4&#45;&gt;node5 -->
<g id="edge13" class="edge">
<title>node4&#45;&gt;node5</title>
<path fill="none" stroke="black" d="M1819.88,-182.29C1788.25,-165.81 1745.21,-143.38 1712.06,-126.11"/>
<polygon fill="black" stroke="black" points="1713.48,-122.9 1702.99,-121.38 1710.24,-129.11 1713.48,-122.9"/>
</g>
<!-- node5&#45;&gt;node1 -->
<g id="edge12" class="edge">
<title>node5&#45;&gt;node1</title>
<path fill="none" stroke="black" d="M1693.68,-73.24C1707.35,-62.54 1723.16,-50.17 1736.23,-39.94"/>
<polygon fill="black" stroke="black" points="1738.65,-42.49 1744.37,-33.57 1734.34,-36.98 1738.65,-42.49"/>
</g>
<!-- node6 -->
<g id="node15" class="node">
<title>node6</title>
<polygon fill="none" stroke="black" points="2048.39,-287.71 2048.39,-309.29 1984.31,-324.55 1893.69,-324.55 1829.61,-309.29 1829.61,-287.71 1893.69,-272.46 1984.31,-272.46 2048.39,-287.71"/>
<text text-anchor="middle" x="1939" y="-301.9" font-family="Times,serif" font-size="12.00">gmock_main</text>
<text text-anchor="middle" x="1939" y="-288.9" font-family="Times,serif" font-size="12.00">(GTest::gmock_main)</text>
</g>
<!-- node6&#45;&gt;node1 -->
<g id="edge14" class="edge">
<title>node6&#45;&gt;node1</title>
<path fill="none" stroke="black" d="M1949.87,-272.04C1959.03,-246.54 1968.52,-206.78 1954,-176.04 1922.43,-109.23 1846.96,-61.26 1800.9,-37"/>
<polygon fill="black" stroke="black" points="1802.31,-33.8 1791.82,-32.33 1799.11,-40.02 1802.31,-33.8"/>
</g>
<!-- node6&#45;&gt;node4 -->
<g id="edge15" class="edge">
<title>node6&#45;&gt;node4</title>
<path fill="none" stroke="black" d="M1917.83,-272.23C1909.43,-262.2 1899.65,-250.53 1890.7,-239.84"/>
<polygon fill="black" stroke="black" points="1893.16,-237.32 1884.06,-231.9 1887.79,-241.82 1893.16,-237.32"/>
</g>
<!-- node7 -->
<g id="node16" class="node">
<title>node7</title>
<polygon fill="none" stroke="black" points="1763.06,-194.97 1763.06,-216.55 1703.86,-231.81 1620.14,-231.81 1560.94,-216.55 1560.94,-194.97 1620.14,-179.72 1703.86,-179.72 1763.06,-194.97"/>
<text text-anchor="middle" x="1662" y="-209.16" font-family="Times,serif" font-size="12.00">gtest_main</text>
<text text-anchor="middle" x="1662" y="-196.16" font-family="Times,serif" font-size="12.00">(GTest::gtest_main)</text>
</g>
<!-- node7&#45;&gt;node1 -->
<g id="edge16" class="edge">
<title>node7&#45;&gt;node1</title>
<path fill="none" stroke="black" d="M1696.54,-179.69C1713.48,-165.54 1732.63,-146.44 1744,-125.04 1757.05,-100.49 1761.35,-68.69 1762.66,-46.34"/>
<polygon fill="black" stroke="black" points="1766.16,-46.34 1763.09,-36.2 1759.17,-46.05 1766.16,-46.34"/>
</g>
<!-- node7&#45;&gt;node5 -->
<g id="edge17" class="edge">
<title>node7&#45;&gt;node5</title>
<path fill="none" stroke="black" d="M1662,-179.67C1662,-166.43 1662,-149.95 1662,-135.43"/>
<polygon fill="black" stroke="black" points="1665.5,-135.27 1662,-125.27 1658.5,-135.27 1665.5,-135.27"/>
</g>
<!-- node8 -->
<g id="node17" class="node">
<title>node8</title>
<polygon fill="none" stroke="black" points="1340.85,-215.01 1271,-235.7 1201.15,-215.01 1227.83,-181.54 1314.17,-181.54 1340.85,-215.01"/>
<text text-anchor="middle" x="1271" y="-209.16" font-family="Times,serif" font-size="12.00">itlib</text>
<text text-anchor="middle" x="1271" y="-196.16" font-family="Times,serif" font-size="12.00">(itlib::itlib)</text>
</g>
<!-- node9 -->
<g id="node18" class="node">
<title>node9</title>
<polygon fill="none" stroke="black" points="1396,-91.57 1396,-106.48 1380.18,-117.02 1357.82,-117.02 1342,-106.48 1342,-91.57 1357.82,-81.02 1380.18,-81.02 1396,-91.57"/>
<text text-anchor="middle" x="1369" y="-95.92" font-family="Times,serif" font-size="12.00">sim</text>
</g>
<!-- node10 -->
<g id="node19" class="node">
<title>node10</title>
<polygon fill="none" stroke="black" points="919.79,-10.54 919.79,-25.46 893.55,-36 856.45,-36 830.21,-25.46 830.21,-10.54 856.45,0 893.55,0 919.79,-10.54"/>
<text text-anchor="middle" x="875" y="-14.9" font-family="Times,serif" font-size="12.00">sim&#45;utils</text>
</g>
<!-- node9&#45;&gt;node10 -->
<g id="edge18" class="edge">
<title>node9&#45;&gt;node10</title>
<path fill="none" stroke="black" d="M1341.74,-93.66C1262.95,-81.06 1033.89,-44.42 928.82,-27.61"/>
<polygon fill="black" stroke="black" points="929.17,-24.12 918.74,-26 928.06,-31.03 929.17,-24.12"/>
</g>
<!-- node11 -->
<g id="node20" class="node">
<title>node11</title>
<polygon fill="none" stroke="black" points="1504.94,-198.31 1504.94,-213.22 1473.34,-223.76 1428.66,-223.76 1397.06,-213.22 1397.06,-198.31 1428.66,-187.76 1473.34,-187.76 1504.94,-198.31"/>
<text text-anchor="middle" x="1451" y="-202.66" font-family="Times,serif" font-size="12.00">sim&#45;fixture</text>
</g>
<!-- node11&#45;&gt;node9 -->
<g id="edge19" class="edge">
<title>node11&#45;&gt;node9</title>
<path fill="none" stroke="black" d="M1437.46,-187.47C1423.99,-170.26 1403.19,-143.7 1388.06,-124.36"/>
<polygon fill="black" stroke="black" points="1390.67,-122.03 1381.75,-116.31 1385.16,-126.34 1390.67,-122.03"/>
</g>
<!-- node12 -->
<g id="node21" class="node">
<title>node12</title>
<polygon fill="none" stroke="black" points="897.74,-280.55 901.54,-280.65 905.31,-280.8 909.02,-280.99 912.65,-281.24 916.21,-281.53 919.66,-281.87 923.01,-282.25 926.23,-282.68 929.31,-283.15 932.25,-283.66 935.02,-284.22 937.63,-284.81 940.07,-285.44 942.32,-286.11 944.39,-286.81 946.26,-287.54 947.93,-288.3 949.4,-289.09 950.67,-289.91 951.74,-290.75 952.6,-291.61 953.26,-292.49 953.72,-293.39 953.99,-294.3 954.06,-295.22 953.94,-296.15 953.64,-297.09 953.16,-298.03 952.52,-298.97 951.7,-299.91 950.74,-300.85 949.62,-301.78 948.37,-302.71 946.99,-303.62 945.48,-304.51 943.85,-305.39 942.12,-306.25 940.3,-307.09 938.38,-307.91 936.38,-308.7 934.31,-309.46 932.17,-310.2 929.97,-310.9 927.72,-311.56 925.42,-312.19 923.07,-312.79 920.7,-313.34 918.29,-313.85 915.85,-314.33 913.39,-314.75 910.92,-315.14 908.42,-315.47 905.92,-315.77 903.4,-316.01 900.87,-316.21 898.34,-316.35 895.81,-316.45 893.27,-316.5 890.73,-316.5 888.19,-316.45 885.66,-316.35 883.13,-316.21 880.6,-316.01 878.08,-315.77 875.58,-315.47 873.08,-315.14 870.61,-314.75 868.15,-314.33 865.71,-313.85 863.3,-313.34 860.93,-312.79 858.58,-312.19 856.28,-311.56 854.03,-310.9 851.83,-310.2 849.69,-309.46 847.62,-308.7 845.62,-307.91 843.7,-307.09 841.88,-306.25 840.15,-305.39 838.52,-304.51 837.01,-303.62 835.63,-302.71 834.38,-301.78 833.26,-300.85 832.3,-299.91 831.48,-298.97 830.84,-298.03 830.36,-297.09 830.06,-296.15 829.94,-295.22 830.01,-294.3 830.28,-293.39 830.74,-292.49 831.4,-291.61 832.26,-290.75 833.33,-289.91 834.6,-289.09 836.07,-288.3 837.74,-287.54 839.61,-286.81 841.68,-286.11 843.93,-285.44 846.37,-284.81 848.98,-284.22 851.75,-283.66 854.69,-283.15 857.77,-282.68 860.99,-282.25 864.34,-281.87 867.79,-281.53 871.35,-281.24 874.98,-280.99 878.69,-280.8 882.46,-280.65 886.26,-280.55 890.08,-280.5 893.92,-280.5 897.74,-280.55"/>
<text text-anchor="middle" x="892" y="-295.4" font-family="Times,serif" font-size="12.00">sim&#45;research</text>
</g>
<!-- node12&#45;&gt;node0 -->
<g id="edge20" class="edge">
<title>node12&#45;&gt;node0</title>
<path fill="none" stroke="black" stroke-dasharray="1,5" d="M879.15,-280.51C862.14,-255.77 836.67,-209.19 858,-176.04 874.34,-150.65 901.47,-133.64 929.17,-122.29"/>
<polygon fill="black" stroke="black" points="930.5,-125.52 938.57,-118.65 927.98,-119 930.5,-125.52"/>
</g>
<!-- node12&#45;&gt;node3 -->
<g id="edge21" class="edge">
<title>node12&#45;&gt;node3</title>
<path fill="none" stroke="black" stroke-dasharray="1,5" d="M915.78,-281.28C933.52,-269.17 958.3,-252.27 979.78,-237.62"/>
<polygon fill="black" stroke="black" points="981.84,-240.45 988.13,-231.92 977.89,-234.66 981.84,-240.45"/>
</g>
<!-- node12&#45;&gt;node8 -->
<g id="edge22" class="edge">
<title>node12&#45;&gt;node8</title>
<path fill="none" stroke="black" stroke-dasharray="1,5" d="M948.15,-288.4C1008.87,-277.98 1108.21,-259.23 1192,-235.48 1200.87,-232.97 1210.17,-229.94 1219.15,-226.82"/>
<polygon fill="black" stroke="black" points="1220.48,-230.06 1228.73,-223.41 1218.14,-223.46 1220.48,-230.06"/>
</g>
<!-- node13 -->
<g id="node22" class="node">
<title>node13</title>
<polygon fill="none" stroke="black" points="810.74,-198.31 810.74,-213.22 762.27,-223.76 693.73,-223.76 645.26,-213.22 645.26,-198.31 693.73,-187.76 762.27,-187.76 810.74,-198.31"/>
<text text-anchor="middle" x="728" y="-202.66" font-family="Times,serif" font-size="12.00">sim&#45;research&#45;utils</text>
</g>
<!-- node12&#45;&gt;node13 -->
<g id="edge24" class="edge">
<title>node12&#45;&gt;node13</title>
<path fill="none" stroke="black" stroke-dasharray="1,5" d="M863.81,-281.9C837.33,-267.25 797.46,-245.19 767.76,-228.76"/>
<polygon fill="black" stroke="black" points="769.33,-225.63 758.89,-223.85 765.95,-231.76 769.33,-225.63"/>
</g>
<!-- node13&#45;&gt;node10 -->
<g id="edge23" class="edge">
<title>node13&#45;&gt;node10</title>
<path fill="none" stroke="black" d="M741.57,-187.62C767.6,-154.72 824.68,-82.59 855.06,-44.2"/>
<polygon fill="black" stroke="black" points="858.01,-46.12 861.47,-36.1 852.52,-41.77 858.01,-46.12"/>
</g>
<!-- node14 -->
<g id="node23" class="node">
<title>node14</title>
<polygon fill="none" stroke="black" points="1454.24,-280.55 1456.38,-280.65 1458.5,-280.8 1460.59,-280.99 1462.65,-281.24 1464.65,-281.53 1466.6,-281.87 1468.48,-282.25 1470.3,-282.68 1472.04,-283.15 1473.69,-283.66 1475.26,-284.22 1476.73,-284.81 1478.1,-285.44 1479.37,-286.11 1480.54,-286.81 1481.59,-287.54 1482.54,-288.3 1483.37,-289.09 1484.08,-289.91 1484.68,-290.75 1485.17,-291.61 1485.54,-292.49 1485.8,-293.39 1485.95,-294.3 1485.99,-295.22 1485.93,-296.15 1485.76,-297.09 1485.49,-298.03 1485.12,-298.97 1484.66,-299.91 1484.12,-300.85 1483.49,-301.78 1482.78,-302.71 1482,-303.62 1481.15,-304.51 1480.24,-305.39 1479.26,-306.25 1478.23,-307.09 1477.15,-307.91 1476.02,-308.7 1474.86,-309.46 1473.65,-310.2 1472.41,-310.9 1471.14,-311.56 1469.84,-312.19 1468.52,-312.79 1467.18,-313.34 1465.82,-313.85 1464.45,-314.33 1463.06,-314.75 1461.67,-315.14 1460.26,-315.47 1458.85,-315.77 1457.43,-316.01 1456,-316.21 1454.58,-316.35 1453.15,-316.45 1451.72,-316.5 1450.28,-316.5 1448.85,-316.45 1447.42,-316.35 1446,-316.21 1444.57,-316.01 1443.15,-315.77 1441.74,-315.47 1440.33,-315.14 1438.94,-314.75 1437.55,-314.33 1436.18,-313.85 1434.82,-313.34 1433.48,-312.79 1432.16,-312.19 1430.86,-311.56 1429.59,-310.9 1428.35,-310.2 1427.14,-309.46 1425.98,-308.7 1424.85,-307.91 1423.77,-307.09 1422.74,-306.25 1421.76,-305.39 1420.85,-304.51 1420,-303.62 1419.22,-302.71 1418.51,-301.78 1417.88,-300.85 1417.34,-299.91 1416.88,-298.97 1416.51,-298.03 1416.24,-297.09 1416.07,-296.15 1416.01,-295.22 1416.05,-294.3 1416.2,-293.39 1416.46,-292.49 1416.83,-291.61 1417.32,-290.75 1417.92,-289.91 1418.63,-289.09 1419.46,-288.3 1420.41,-287.54 1421.46,-286.81 1422.63,-286.11 1423.9,-285.44 1425.27,-284.81 1426.74,-284.22 1428.31,-283.66 1429.96,-283.15 1431.7,-282.68 1433.52,-282.25 1435.4,-281.87 1437.35,-281.53 1439.35,-281.24 1441.41,-280.99 1443.5,-280.8 1445.62,-280.65 1447.76,-280.55 1449.92,-280.5 1452.08,-280.5 1454.24,-280.55"/>
<text text-anchor="middle" x="1451" y="-295.4" font-family="Times,serif" font-size="12.00">sim&#45;ut</text>
</g>
<!-- node14&#45;&gt;node5 -->
<g id="edge25" class="edge">
<title>node14&#45;&gt;node5</title>
<path fill="none" stroke="black" stroke-dasharray="1,5" d="M1468.63,-282.13C1481.89,-270.13 1500.08,-252.65 1514,-235.48 1533.74,-211.12 1530.23,-198.61 1552,-176.04 1570.05,-157.33 1593.36,-140.44 1613.88,-127.36"/>
<polygon fill="black" stroke="black" points="1615.84,-130.26 1622.47,-122 1612.14,-124.32 1615.84,-130.26"/>
</g>
<!-- node14&#45;&gt;node7 -->
<g id="edge26" class="edge">
<title>node14&#45;&gt;node7</title>
<path fill="none" stroke="black" stroke-dasharray="1,5" d="M1478.58,-285.64C1509.36,-272.4 1560.13,-250.57 1600.47,-233.22"/>
<polygon fill="black" stroke="black" points="1601.88,-236.43 1609.69,-229.26 1599.12,-229.99 1601.88,-236.43"/>
</g>
<!-- node14&#45;&gt;node8 -->
<g id="edge27" class="edge">
<title>node14&#45;&gt;node8</title>
<path fill="none" stroke="black" stroke-dasharray="1,5" d="M1422.94,-285.77C1403.62,-277.48 1377.48,-265.87 1355,-254.48 1341.02,-247.4 1326.06,-239.13 1312.69,-231.48"/>
<polygon fill="black" stroke="black" points="1314.13,-228.27 1303.72,-226.31 1310.63,-234.34 1314.13,-228.27"/>
</g>
<!-- node14&#45;&gt;node9 -->
<g id="edge28" class="edge">
<title>node14&#45;&gt;node9</title>
<path fill="none" stroke="black" stroke-dasharray="1,5" d="M1430.17,-282.9C1415.85,-271.66 1397.73,-254.81 1388,-235.48 1370.68,-201.06 1367.68,-155.85 1367.81,-127.36"/>
<polygon fill="black" stroke="black" points="1371.31,-127.38 1367.99,-117.32 1364.31,-127.25 1371.31,-127.38"/>
</g>
<!-- node14&#45;&gt;node11 -->
<g id="edge29" class="edge">
<title>node14&#45;&gt;node11</title>
<path fill="none" stroke="black" stroke-dasharray="1,5" d="M1451,-280.43C1451,-267.46 1451,-249.35 1451,-234.33"/>
<polygon fill="black" stroke="black" points="1454.5,-234.06 1451,-224.06 1447.5,-234.06 1454.5,-234.06"/>
</g>
</g>
</svg>
